# xmcd
#
# Track frame offsets: 
#        150
#        19995
#        46420
#        63920
#        83290
#        100018
#        122635
#        133980
#        149013
#        166008
#        179625
#        196070
#        212563
#
# Disc length: 3093 seconds
#
# Revision: 4
# Processed by: cddbd v1.5.2PL0 Copyright (c) Steve Scherf et al.
# Submitted via: ExactAudioCopy v0.99pb4
#
DISCID=b10c130d
DTITLE=Lightnin' Hopkins - The Swarthmore Concert
DYEAR=1993
DGENRE=Blues
TTITLE0=Baby, Please Don't Go
TTITLE1=My Black Cadillac
TTITLE2=It's Crazy
TTITLE3=Mojo Hand
TTITLE4=My Babe
TTITLE5=Short Haired Woman
TTITLE6=Mean Old Frisco
TTITLE7=Trouble In Mind
TTITLE8=The Twister
TTITLE9=Green Onion
TTITLE10=Sun Goin' Down
TTITLE11=Come Go Home With Me
TTITLE12=I'm A Stranger
EXTD=
EXTT0=
EXTT1=
EXTT2=
EXTT3=
EXTT4=
EXTT5=
EXTT6=
EXTT7=
EXTT8=
EXTT9=
EXTT10=
EXTT11=
EXTT12=
PLAYORDER=
